<?xml version="1.0" standalone="no"?>
<!DOCTYPE svg PUBLIC "-//W3C//DTD SVG 20010904//EN"
 "http://www.w3.org/TR/2001/REC-SVG-20010904/DTD/svg10.dtd">
<svg version="1.0" xmlns="http://www.w3.org/2000/svg"
 width="591.000000pt" height="591.000000pt" viewBox="0 0 591.000000 591.000000"
 preserveAspectRatio="xMidYMid meet">
<metadata>
Created by potrace 1.11, written by Peter Selinger 2001-2013
</metadata>
<g transform="translate(0.000000,591.000000) scale(0.100000,-0.100000)"
fill="#000000" stroke="none">
<path d="M4578 4934 c-2 -1 -23 -5 -48 -9 -68 -9 -176 -40 -257 -73 -64 -26
-74 -28 -102 -16 -51 22 -230 63 -336 78 -97 14 -468 15 -524 2 -13 -3 -49 -8
-80 -12 -31 -3 -59 -8 -62 -10 -3 -2 -20 -6 -37 -9 -18 -3 -45 -7 -61 -10 -59
-10 -279 -77 -366 -112 -174 -68 -356 -175 -502 -295 -127 -103 -273 -280
-338 -408 -45 -89 -67 -155 -81 -240 -3 -19 -8 -37 -10 -39 -2 -2 -34 -5 -72
-7 -175 -6 -411 -102 -570 -232 -201 -164 -372 -424 -465 -707 -147 -445 -90
-919 139 -1161 83 -87 176 -148 289 -187 109 -39 156 -46 295 -47 193 -1 351
43 545 152 196 111 302 193 522 406 24 23 47 42 51 42 4 0 8 -28 9 -63 4 -85
36 -206 75 -279 51 -96 165 -205 268 -258 127 -64 240 -88 401 -84 101 2 124
4 219 25 302 65 566 264 738 554 55 93 116 258 138 370 20 107 23 294 5 380
-36 170 -142 338 -285 451 l-40 31 70 22 c326 105 531 261 649 496 54 108 77
200 80 319 7 249 -87 439 -314 637 l-53 46 74 31 c40 17 101 38 135 46 73 19
303 56 353 56 34 1 34 1 15 16 -37 30 -147 77 -208 90 -52 10 -251 17 -259 8z
m-1088 -208 c36 -3 76 -8 89 -11 13 -2 42 -7 65 -9 54 -7 158 -30 224 -51 l52
-16 -59 -49 c-216 -180 -485 -496 -797 -935 -139 -197 -215 -308 -429 -635
-173 -263 -418 -632 -456 -684 -161 -224 -357 -409 -514 -485 -175 -85 -279
-106 -432 -88 -238 29 -402 271 -408 602 -8 445 220 896 531 1054 152 76 335
79 404 6 30 -32 62 -131 64 -205 3 -86 -18 -213 -54 -330 -76 -248 -210 -410
-480 -582 -81 -51 -88 -62 -48 -81 90 -41 283 -47 413 -12 376 101 656 464
659 855 1 58 -2 130 -6 161 l-8 56 62 17 c131 36 273 131 356 237 162 207 233
487 198 777 -4 34 -12 64 -16 67 -10 6 -42 -38 -60 -85 -25 -63 -151 -283
-209 -364 -66 -93 -209 -232 -277 -270 -88 -49 -177 -57 -221 -18 -84 73 -76
276 20 467 105 212 310 400 544 500 132 57 313 102 478 117 50 5 246 1 315 -6z
m791 -307 c59 -69 76 -96 98 -160 58 -168 -36 -418 -236 -625 -144 -150 -303
-235 -496 -268 -81 -13 -157 -11 -157 4 0 5 34 66 77 137 74 125 166 282 206
353 160 286 289 478 400 597 36 39 45 35 108 -38z m-712 -1357 c128 -63 202
-157 230 -290 19 -93 14 -264 -14 -402 -47 -240 -244 -505 -435 -587 -103 -44
-241 -56 -320 -28 -118 42 -163 106 -163 234 0 88 23 157 82 247 110 171 274
266 466 269 112 3 105 1 105 28 0 77 -155 195 -283 215 -30 5 -76 7 -101 6
-34 -2 -45 0 -39 9 4 7 41 64 83 127 42 63 90 135 105 160 15 25 33 48 39 52
5 4 46 4 91 2 66 -5 93 -12 154 -42z"/>
</g>
</svg>
