<svg xmlns="http://www.w3.org/2000/svg" xmlns:xlink="http://www.w3.org/1999/xlink" id="Laag_1" x="0px" y="0px" viewBox="0 0 56.7 14.2" style="enable-background:new 0 0 56.7 14.2;" xml:space="preserve"> <g> <path d="M18.2,0.9c-0.3,0-0.5,0.1-0.8,0.1S17,1.1,16.8,1.2c0.2,0.1,0.3,0.3,0.5,0.4c0.3,0.3,0.4,0.7,0.4,1.1c0,0.4-0.1,0.8-0.3,1.1 c-0.2,0.3-0.4,0.5-0.7,0.7c-0.3,0.2-0.6,0.3-0.9,0.4C15.9,5,16,5.2,16.2,5.3c0.2,0.3,0.4,0.7,0.4,1.1s-0.1,0.8-0.2,1.1 c-0.1,0.4-0.4,0.7-0.6,0.9s-0.6,0.5-0.9,0.6c-0.2,0.1-0.4,0.1-0.6,0.1c-0.2,0-0.4,0-0.6,0c-0.2,0-0.4-0.1-0.6-0.1 c-0.2-0.1-0.3-0.2-0.5-0.3c-0.2-0.2-0.3-0.3-0.4-0.6c-0.1-0.2-0.1-0.5-0.1-0.7c-0.1,0.1-0.2,0.2-0.2,0.2C11.7,7.9,11.7,8,11.6,8 c-0.3,0.3-0.7,0.5-1,0.7C10.2,8.9,9.8,9,9.3,9C8.9,9,8.5,8.9,8.2,8.7c-0.3-0.2-0.5-0.6-0.6-1C7.4,7.4,7.4,7,7.5,6.6 c0-0.4,0.1-0.8,0.3-1.2c0.2-0.4,0.4-0.7,0.6-1C8.6,4,9,3.8,9.3,3.6c0.2-0.1,0.3-0.1,0.5-0.2c0.2,0,0.3-0.1,0.5,0 c0-0.2,0.1-0.4,0.2-0.6c0.1-0.2,0.2-0.4,0.3-0.5C11,2,11.3,1.7,11.6,1.5C12,1.3,12.3,1.1,12.7,1c0.2-0.1,0.5-0.2,0.8-0.2 c0.3-0.1,0.6-0.1,0.9-0.1s0.6,0,0.9,0c0.3,0,0.6,0.1,0.9,0.2c0.3-0.2,0.7-0.3,1.1-0.3C17.6,0.6,17.9,0.7,18.2,0.9z M13,1.9 c0.1,0.4,0.1,0.8,0,1.1c-0.1,0.4-0.3,0.7-0.5,1c-0.1,0.1-0.3,0.2-0.4,0.3c-0.2,0.1-0.3,0.2-0.5,0.2c0.1,0.3,0.1,0.6,0,0.9 c-0.1,0.3-0.2,0.6-0.3,0.8c-0.1,0.2-0.2,0.3-0.4,0.4C10.7,6.9,10.5,7,10.4,7S10,7.2,9.8,7.2s-0.4,0-0.6,0c0,0-0.1,0-0.1,0 S9,7.1,9,7.1c0,0,0,0,0,0C9,7.1,9,7,9,7c0,0,0.1,0,0.1,0c0,0,0,0,0,0c0,0,0.1,0,0.1-0.1c0,0,0.1-0.1,0.1-0.1 c0.2-0.1,0.3-0.2,0.4-0.4C9.9,6.3,10,6.1,10.1,6c0.1-0.1,0.1-0.3,0.2-0.5c0.1-0.2,0.1-0.4,0.1-0.6c0-0.2,0-0.4-0.1-0.5 c-0.1-0.2-0.2-0.2-0.4-0.3c-0.2,0-0.4,0-0.6,0.1C9.2,4.3,9,4.4,8.9,4.6C8.8,4.7,8.6,4.8,8.5,5C8.4,5.2,8.3,5.4,8.3,5.5 C8.2,5.7,8.1,5.9,8.1,6.1C8,6.3,8,6.5,8,6.7c0,0.2,0,0.4,0.1,0.6s0.1,0.4,0.2,0.5C8.4,8,8.5,8.1,8.7,8.2s0.4,0.1,0.5,0.1 c0.2,0,0.4-0.1,0.6-0.1C10,8.1,10.2,8,10.3,7.9C10.7,7.6,11,7.3,11.2,7s0.5-0.7,0.7-1c0.2-0.4,0.5-0.7,0.7-1.1s0.5-0.7,0.7-1.1 c0.2-0.4,0.5-0.7,0.8-1c0.3-0.3,0.5-0.7,0.9-1c0.1-0.1,0.1-0.1,0.2-0.2s0.2-0.1,0.2-0.2c-0.2-0.1-0.4-0.1-0.6-0.1 c-0.2,0-0.4-0.1-0.6-0.1c-0.4,0-0.8,0-1.2,0.1c-0.4,0.1-0.8,0.3-1.1,0.5c-0.2,0.1-0.3,0.3-0.5,0.4s-0.3,0.4-0.3,0.6 C11.1,3,11,3.2,11,3.4c0,0.2,0.1,0.3,0.2,0.4c0.1,0.1,0.2,0.1,0.4,0c0.2-0.1,0.4-0.2,0.6-0.5c0.1-0.1,0.2-0.3,0.3-0.5 c0.1-0.2,0.2-0.4,0.3-0.5c0,0,0-0.1,0.1-0.2C12.9,2,13,1.9,13,1.9z M14,5c-0.1,0.1-0.2,0.3-0.3,0.4c-0.1,0.1-0.2,0.3-0.3,0.4 c0.1,0,0.3,0,0.4,0C14,5.9,14.1,6,14.2,6c0.1,0.1,0.2,0.2,0.3,0.3c0,0.1,0,0.1,0,0.1c0,0-0.1,0-0.1,0c-0.1,0-0.1,0-0.2,0 c-0.2,0-0.3,0.1-0.5,0.1c-0.2,0.1-0.3,0.2-0.4,0.3C13.1,7.1,13,7.2,13,7.4c-0.1,0.2-0.1,0.4,0,0.5C13,8,13,8.1,13.1,8.1 c0.1,0.1,0.1,0.1,0.2,0.1c0.1,0,0.2,0,0.2,0c0.1,0,0.2,0,0.3,0c0.2,0,0.4-0.1,0.5-0.2c0.1-0.1,0.3-0.2,0.4-0.4 c0.1-0.1,0.2-0.3,0.3-0.5c0.1-0.2,0.1-0.3,0.2-0.5c0-0.2,0.1-0.4,0.1-0.6c0-0.2,0-0.4-0.1-0.6c-0.1-0.1-0.2-0.2-0.3-0.3 c-0.1-0.1-0.2-0.1-0.4-0.2c-0.1,0-0.1,0-0.2,0C14.2,5,14.1,5,14,5L14,5z M14.4,4.4l0.2,0c0.2,0,0.4-0.1,0.6-0.1 c0.2-0.1,0.4-0.2,0.5-0.3c0.1-0.1,0.3-0.2,0.4-0.4s0.3-0.3,0.4-0.5c0.1-0.2,0.2-0.4,0.2-0.6c0-0.2,0-0.4-0.1-0.5 c-0.1-0.1-0.2-0.2-0.3-0.4l0,0c-0.3,0.3-0.5,0.7-0.7,1s-0.4,0.7-0.6,1.1L14.4,4.4z"></path> <path d="M19,6.6c-0.1,0-0.2,0-0.2,0c-0.1,0-0.2,0-0.2,0c-0.1,0.4-0.2,0.7-0.1,1c0.1,0.3,0.2,0.4,0.4,0.6c0.2,0.1,0.4,0.1,0.8,0.1 c0.3-0.1,0.7-0.2,1-0.5c0.3-0.2,0.6-0.5,0.8-0.8S21.8,6.3,22,6c0.1,0,0.2,0,0.2,0c0.1,0,0.1,0.1,0.1,0.2c-0.2,0.3-0.4,0.7-0.7,1 s-0.6,0.6-0.9,0.9c-0.5,0.4-1,0.7-1.6,0.9c-0.5,0.1-1,0.1-1.3-0.1c-0.3-0.2-0.5-0.4-0.6-0.7c-0.1-0.3-0.2-0.6-0.2-1 c0-0.3,0.1-0.6,0.2-0.9c0.1-0.3,0.2-0.6,0.4-0.9c0.2-0.3,0.4-0.5,0.6-0.8C18.5,4.3,18.8,4.1,19,4c0.3-0.1,0.6-0.3,0.9-0.3 c0.4-0.1,0.7-0.1,1,0c0.2,0,0.3,0.1,0.4,0.2c0.1,0.1,0.2,0.2,0.2,0.3c0,0.1,0.1,0.3,0.1,0.4c0,0.1,0,0.3-0.1,0.4 c-0.1,0.3-0.3,0.6-0.6,0.8c-0.3,0.2-0.6,0.4-0.9,0.5C19.7,6.5,19.4,6.6,19,6.6z M19.9,4.5c-0.3,0.2-0.5,0.5-0.7,0.8 s-0.4,0.6-0.6,0.9c0.1,0,0.2-0.1,0.4-0.1c0.2-0.1,0.4-0.2,0.6-0.3c0.2-0.1,0.4-0.3,0.6-0.4c0.1-0.1,0.3-0.3,0.4-0.5 c0.1-0.2,0.2-0.4,0.2-0.6c0-0.1,0-0.2-0.1-0.2s-0.2,0-0.3,0s-0.2,0.1-0.3,0.1C20.1,4.4,20,4.4,19.9,4.5z"></path> <path d="M23.6,6.6c-0.1,0-0.2,0-0.2,0c-0.1,0-0.2,0-0.2,0C23,7,22.9,7.3,23,7.6c0.1,0.3,0.2,0.4,0.4,0.6c0.2,0.1,0.4,0.1,0.8,0.1 c0.3-0.1,0.7-0.2,1-0.5c0.3-0.2,0.6-0.5,0.8-0.8s0.5-0.6,0.6-0.9c0.1,0,0.2,0,0.2,0c0.1,0,0.1,0.1,0.1,0.2c-0.2,0.3-0.4,0.7-0.7,1 s-0.6,0.6-0.9,0.9c-0.5,0.4-1,0.7-1.6,0.9c-0.5,0.1-1,0.1-1.3-0.1c-0.3-0.2-0.5-0.4-0.6-0.7c-0.1-0.3-0.2-0.6-0.2-1 c0-0.3,0.1-0.6,0.2-0.9c0.1-0.3,0.2-0.6,0.4-0.9c0.2-0.3,0.4-0.5,0.6-0.8c0.2-0.2,0.5-0.4,0.8-0.6c0.3-0.1,0.6-0.3,0.9-0.3 c0.4-0.1,0.7-0.1,1,0c0.2,0,0.3,0.1,0.4,0.2c0.1,0.1,0.2,0.2,0.2,0.3c0,0.1,0.1,0.3,0.1,0.4c0,0.1,0,0.3-0.1,0.4 c-0.1,0.3-0.3,0.6-0.6,0.8C25.3,6,25,6.2,24.7,6.3C24.3,6.5,24,6.6,23.6,6.6z M24.6,4.5C24.3,4.7,24,5,23.8,5.3s-0.4,0.6-0.6,0.9 c0.1,0,0.2-0.1,0.4-0.1c0.2-0.1,0.4-0.2,0.6-0.3c0.2-0.1,0.4-0.3,0.6-0.4c0.1-0.1,0.3-0.3,0.4-0.5c0.1-0.2,0.2-0.4,0.2-0.6 c0-0.1,0-0.2-0.1-0.2s-0.2,0-0.3,0s-0.2,0.1-0.3,0.1C24.7,4.4,24.6,4.4,24.6,4.5z"></path> <path d="M25.2,7.9c0.4-0.5,0.9-1.1,1.2-1.7c0.4-0.6,0.7-1.2,0.9-1.9c-0.1-0.2-0.1-0.3-0.1-0.5c0-0.2,0.1-0.3,0.1-0.4 c0.1-0.1,0.2-0.2,0.3-0.3c0.1-0.1,0.2,0,0.3,0c0.1,0.1,0.2,0.2,0.2,0.3S28.1,3.8,28,3.9c0.1,0,0.1,0,0.2,0s0.1,0,0.2,0 c0.2,0,0.4,0,0.5-0.1c0.1-0.1,0.2-0.2,0.3-0.3s0.2,0,0.3,0.1C29.8,3.9,30,4.1,30,4.3c0,0.2,0,0.4-0.2,0.6C29.5,5.2,29.3,5.6,29,6 c-0.3,0.4-0.5,0.8-0.6,1.1c-0.1,0.3-0.1,0.5-0.1,0.6c0,0.2,0.1,0.3,0.2,0.3c0.1,0,0.2,0,0.4,0s0.3-0.2,0.5-0.3 C29.6,7.6,29.8,7.3,30,7c0.2-0.3,0.4-0.6,0.6-1C30.8,6,30.8,6,30.9,6C31,6.1,31,6.1,31,6.2c-0.2,0.4-0.4,0.7-0.6,1 s-0.5,0.6-0.7,0.9c-0.2,0.2-0.5,0.4-0.7,0.5c-0.2,0.1-0.5,0.2-0.7,0.2c-0.2,0-0.4,0-0.6-0.1c-0.2-0.1-0.3-0.2-0.4-0.4 c-0.1-0.2-0.2-0.4-0.2-0.6c0-0.3,0.1-0.5,0.2-0.9c0.1-0.4,0.3-0.8,0.5-1.2c0.2-0.4,0.4-0.7,0.6-1c-0.1,0-0.1,0-0.1,0 c-0.1,0-0.2,0-0.3,0c-0.1,0-0.2-0.1-0.3-0.1c-0.1,0.2-0.2,0.5-0.3,0.8c-0.1,0.3-0.3,0.6-0.4,0.9c-0.1,0.3-0.3,0.5-0.4,0.7 c-0.1,0.2-0.3,0.4-0.4,0.5c-0.1,0.1-0.3,0.3-0.4,0.3C25.5,7.9,25.4,7.9,25.2,7.9z"></path> <path d="M34.4,2.8c-0.1,0.1-0.2,0.3-0.3,0.5C34,3.6,34,3.8,33.9,4.1S33.9,4.7,33.8,5s-0.1,0.6-0.1,0.9c0,0.3-0.1,0.6-0.2,0.9 c0.2,0,0.3,0,0.4,0c0.1,0,0.3-0.1,0.4-0.2s0.2-0.2,0.3-0.3s0.2-0.2,0.2-0.3c0.2-0.1,0.3,0,0.4,0.2c-0.1,0.2-0.3,0.4-0.4,0.7 c-0.2,0.2-0.4,0.4-0.6,0.5c-0.2,0.1-0.3,0.1-0.5,0.2s-0.3,0-0.5,0c-0.2,0.3-0.4,0.5-0.6,0.7c-0.2,0.2-0.5,0.3-0.9,0.5 s-0.7,0.2-1,0.2S30,8.8,29.7,8.6c-0.3-0.2-0.4-0.5-0.5-0.9c0-0.2,0-0.3,0-0.5s0.1-0.3,0.2-0.5s0.2-0.3,0.3-0.4s0.2-0.2,0.4-0.3 c0.3-0.2,0.6-0.2,0.9-0.2c0.1-0.2,0.3-0.4,0.5-0.6c0.2-0.2,0.3-0.4,0.5-0.6c0.2-0.2,0.3-0.4,0.5-0.6c0.2-0.2,0.3-0.4,0.4-0.6 c0-0.1,0.1-0.2,0.2-0.3C33,3.1,33.1,3,33.2,2.9c0.1-0.1,0.2-0.1,0.3-0.2c0.1,0,0.3-0.1,0.4-0.1C34.1,2.7,34.2,2.7,34.4,2.8z M31.7,7.7c0.1-0.1,0.2-0.2,0.2-0.4c-0.2-0.1-0.4-0.1-0.5-0.2c-0.1,0-0.2-0.1-0.3-0.1c-0.1,0-0.2-0.1-0.4-0.1c-0.1,0-0.2,0-0.3,0 c-0.1,0-0.2,0.1-0.3,0.2C30,7.1,30,7.2,29.9,7.3c0,0.1,0,0.2,0,0.3c0,0.2,0.1,0.4,0.2,0.5s0.3,0.2,0.5,0.2s0.4,0,0.6-0.1 C31.4,8,31.6,7.9,31.7,7.7z M32.5,4.5C32.3,4.7,32.2,5,32,5.2c-0.2,0.2-0.4,0.5-0.5,0.7c0.1,0,0.3,0.1,0.4,0.1l0.4,0.2 c0.1-0.3,0.1-0.6,0.1-0.8C32.4,5.1,32.5,4.8,32.5,4.5z"></path> <path d="M39.6,6c0.1,0,0.2,0,0.2,0c0.1,0,0.1,0.1,0.1,0.2c-0.2,0.4-0.5,0.8-0.7,1.2c-0.3,0.3-0.5,0.6-0.8,0.9s-0.6,0.4-0.9,0.5 c-0.3,0.1-0.7,0.2-1,0.1c-0.3,0-0.6-0.1-0.9-0.3s-0.4-0.4-0.5-0.7l-0.4,0.7l-0.6,1.2c0,0-0.1,0.1-0.1,0.3s-0.1,0.3-0.2,0.5 c-0.1,0.2-0.1,0.3-0.2,0.5c-0.1,0.2-0.1,0.3-0.1,0.4c-0.1,0-0.2-0.1-0.3-0.2c-0.1-0.1-0.2-0.1-0.3-0.2c-0.1-0.1-0.1-0.2-0.2-0.3 s-0.1-0.2,0-0.3c0-0.2,0.1-0.4,0.2-0.6c0.1-0.2,0.2-0.4,0.3-0.5c0.2-0.5,0.5-0.9,0.7-1.4c0.2-0.4,0.5-0.9,0.7-1.4 c0.3-0.5,0.5-1,0.8-1.6c0.3-0.5,0.5-1.1,0.7-1.6c0,0,0.1,0,0.2,0c0.1,0,0.2,0,0.3,0s0.2,0.1,0.3,0.2s0.1,0.2,0,0.4l-0.2,0.5 c0.1-0.2,0.3-0.3,0.5-0.4c0.2-0.1,0.3-0.2,0.5-0.3c0.1-0.1,0.3-0.1,0.5-0.1c0.2,0,0.4,0.1,0.5,0.2c0.1,0.1,0.2,0.2,0.3,0.4 c0,0.2,0.1,0.3,0.1,0.5c0,0.3,0,0.7-0.2,1.1c-0.1,0.4-0.3,0.7-0.5,1c-0.1,0.2-0.2,0.4-0.4,0.6c-0.1,0.2-0.3,0.4-0.4,0.6 c0.2-0.1,0.4-0.1,0.6-0.3c0.2-0.1,0.4-0.3,0.6-0.5c0.2-0.2,0.3-0.4,0.5-0.6C39.3,6.5,39.4,6.3,39.6,6z M35.4,7.3 c0,0.1,0.1,0.3,0.1,0.4c0.1,0.1,0.1,0.2,0.2,0.2c0.1,0.1,0.2,0.1,0.3,0c0.1,0,0.2-0.1,0.4-0.3c0.3-0.3,0.6-0.7,0.8-1.1 c0.2-0.4,0.4-0.8,0.5-1.3c0,0,0-0.1,0-0.2c0-0.1,0-0.2,0-0.3s0-0.2,0-0.2c0-0.1-0.1-0.1-0.1-0.1c-0.1,0-0.2,0-0.3,0.1 c-0.1,0.1-0.2,0.1-0.3,0.2c-0.1,0.1-0.2,0.2-0.3,0.3c-0.1,0.1-0.2,0.2-0.2,0.2c0,0-0.1,0.1-0.1,0.1c0,0,0,0.1-0.1,0.1l-0.4,0.9 L35.4,7.3z"></path> <path d="M42.6,4c0.1,0,0.2,0,0.4,0c0.2,0,0.4,0.2,0.5,0.3c0.1,0.2,0.2,0.4,0.3,0.6c0.1,0.3,0.1,0.7,0,1c-0.1,0.3-0.2,0.7-0.3,1 c0.2,0.1,0.5,0.1,0.7-0.1c0.2-0.1,0.4-0.4,0.6-0.7c0.2-0.1,0.3,0,0.4,0.2c-0.2,0.4-0.5,0.8-0.9,1c-0.3,0.2-0.8,0.4-1.3,0.4 c-0.1,0.2-0.2,0.3-0.4,0.5s-0.3,0.3-0.4,0.4c-0.2,0.1-0.3,0.2-0.5,0.3c-0.2,0.1-0.4,0.1-0.6,0.1c-0.2,0-0.5,0-0.7-0.1 c-0.2-0.1-0.4-0.2-0.5-0.4s-0.3-0.3-0.4-0.5c-0.1-0.2-0.1-0.4-0.2-0.6c0-0.3,0-0.5,0-0.8c0-0.3,0.1-0.5,0.2-0.8 C39.7,5.5,39.9,5.3,40,5c0.1-0.2,0.3-0.4,0.5-0.6c0.2-0.2,0.4-0.3,0.6-0.4c0.2-0.1,0.5-0.2,0.7-0.2c0.1,0,0.3,0,0.4,0 C42.4,3.8,42.5,3.9,42.6,4L42.6,4z M42.1,6.4c0.1-0.1,0.3-0.2,0.4-0.3c0.1-0.1,0.3-0.1,0.4,0C43,6.2,43,6.2,43,6.2 c0.1-0.2,0.1-0.4,0.1-0.6c0-0.2,0-0.4-0.1-0.6c0-0.1-0.1-0.2-0.2-0.3c-0.1-0.1-0.2-0.2-0.3-0.2c-0.1,0-0.3,0-0.4,0 c-0.1,0-0.2,0.1-0.3,0.1c-0.2,0.1-0.4,0.2-0.5,0.4S41.1,5.4,41,5.7s-0.2,0.5-0.3,0.7s-0.1,0.5-0.1,0.7s0,0.4,0.1,0.6 C40.7,7.9,40.8,8,41,8.1c0.2,0.1,0.4,0.1,0.6,0c0.2-0.1,0.5-0.3,0.7-0.5c-0.1,0-0.2-0.1-0.3-0.1c-0.1-0.1-0.1-0.1-0.2-0.2 c-0.1-0.1-0.1-0.3,0-0.4C41.9,6.6,42,6.5,42.1,6.4z"></path> <path d="M48.1,1.8c0,0.1,0,0.2,0,0.3S48,2.2,48,2.3l-0.1,0.3c0.2,0,0.3,0,0.4,0.1c0.1,0,0.3,0.1,0.4,0.2s0.2,0.2,0.2,0.4 c0,0.1,0,0.2,0,0.2s-0.1,0.1-0.2,0.1c-0.1,0-0.2,0-0.3,0.1c-0.1,0-0.3,0-0.4,0.1s-0.3,0-0.4,0c-0.1,0-0.2,0-0.2,0h0l-0.3,0.5 l-0.9,1.9c0,0.1-0.1,0.2-0.2,0.3c-0.1,0.2-0.2,0.3-0.3,0.5c-0.2,0.4-0.3,0.7-0.3,0.9c0,0.2,0.1,0.3,0.2,0.3c0.1,0,0.3,0,0.5-0.2 s0.4-0.3,0.7-0.6C47,7.2,47.2,7,47.3,6.7c0.1-0.2,0.3-0.4,0.4-0.7c0.2-0.1,0.3-0.1,0.4,0.2c-0.1,0.2-0.2,0.4-0.4,0.7 c-0.1,0.2-0.3,0.4-0.4,0.6c-0.2,0.2-0.3,0.4-0.5,0.6c-0.2,0.2-0.4,0.4-0.6,0.5c-0.2,0.1-0.4,0.2-0.6,0.3c-0.2,0.1-0.5,0-0.7,0 c-0.2,0-0.3-0.1-0.4-0.2s-0.2-0.3-0.2-0.4c0-0.2-0.1-0.3,0-0.5s0-0.4,0.1-0.5c0-0.2,0.1-0.3,0.2-0.5c0.1-0.2,0.1-0.3,0.2-0.5 c0.2-0.4,0.4-0.8,0.6-1.1c0.2-0.4,0.4-0.7,0.6-1.1c-0.2,0-0.4,0.1-0.6,0.1c-0.2,0-0.3,0-0.4,0c0-0.1-0.1-0.2,0-0.3 c0-0.1,0-0.2,0.1-0.3c0-0.1,0.1-0.2,0.1-0.3C45.1,3.1,45.2,3,45.3,3c0.2-0.1,0.3-0.2,0.6-0.3s0.4-0.1,0.6-0.1c0,0,0.1,0,0.1,0 c0,0,0.1,0,0.1,0L47,2C47,1.9,47,1.8,47.1,1.7s0.1-0.2,0.2-0.2c0.1,0,0.1-0.1,0.2,0s0.2,0,0.3,0.1c0.1,0,0.2,0.1,0.2,0.1 C48,1.7,48.1,1.7,48.1,1.8z"></path> <path d="M47.7,6c0-0.1,0.1-0.1,0.2-0.1c0.1,0,0.2,0.1,0.3,0.2c0.1,0.2,0.2,0.4,0.3,0.6c0.1,0.2,0.1,0.5,0.1,0.8 c0,0.3-0.1,0.6-0.1,0.9c-0.1,0.3-0.2,0.6-0.3,0.9c-0.2,0.6-0.6,1.1-0.9,1.4s-0.8,0.6-1.2,0.8c-0.5,0.2-1,0.3-1.5,0.4 c-0.5,0.1-1.1,0.1-1.7,0.1C40.9,12.1,39,12,37,11.9c-2-0.1-3.9-0.1-5.8-0.1c-1.9,0-3.7,0-5.4,0.1c-1.7,0-3.3,0.1-4.8,0.2 c-1.5,0.1-2.8,0.2-4,0.4c-1.2,0.2-2.1,0.4-2.9,0.7c-0.2,0.1-0.4,0.1-0.5,0.1c-0.1,0-0.2,0-0.2,0c0,0,0-0.1,0-0.2 c0-0.1,0.1-0.2,0.1-0.4c0.2-0.4,0.4-0.8,0.7-1.1c0.3-0.3,0.7-0.6,1-0.8s0.7-0.4,1.1-0.5c0.4-0.1,0.7-0.2,1-0.3 c0.7-0.1,1.6-0.2,2.5-0.2c1,0,2-0.1,3.1-0.1s2.3,0,3.5,0.1c1.2,0,2.5,0.1,3.7,0.2c1.2,0.1,2.5,0.1,3.7,0.2c1.2,0.1,2.4,0.1,3.5,0.2 s2.1,0.1,3.1,0.2c0.9,0,1.8,0.1,2.5,0.1c0.4,0,0.8,0,1.3,0c0.5,0,0.9-0.1,1.3-0.2s0.8-0.3,1.2-0.5c0.4-0.2,0.7-0.6,0.9-1 c0.1-0.3,0.3-0.6,0.3-0.9c0.1-0.3,0.1-0.6,0.1-0.9c0-0.3,0-0.5-0.1-0.7c-0.1-0.2-0.2-0.4-0.3-0.5c0,0-0.1-0.1-0.1-0.1 C47.7,6.1,47.7,6.1,47.7,6z"></path> </g> </svg>