<svg xmlns="http://www.w3.org/2000/svg" xmlns:xlink="http://www.w3.org/1999/xlink" id="Laag_1" x="0px" y="0px" viewBox="0 0 99.2 42.5" style="enable-background:new 0 0 99.2 42.5;" xml:space="preserve"> <g> <path d="M28.9,8.1c-0.5,0.1-1,0.1-1.5,0.2c-0.5,0.1-0.9,0.2-1.4,0.5C26.4,9,26.7,9.3,27,9.6c0.5,0.6,0.8,1.3,0.8,2.1 c0,0.8-0.2,1.5-0.6,2.2c-0.4,0.6-0.9,1-1.4,1.3c-0.6,0.3-1.2,0.6-1.8,0.7c0.4,0.2,0.7,0.5,0.9,0.9c0.5,0.6,0.7,1.4,0.7,2.2 c0,0.8-0.1,1.5-0.4,2.3c-0.3,0.7-0.7,1.3-1.2,1.9c-0.5,0.5-1.2,0.9-1.9,1.2c-0.4,0.1-0.7,0.2-1.1,0.3c-0.4,0.1-0.8,0.1-1.2,0.1 c-0.4,0-0.8-0.1-1.1-0.2s-0.7-0.3-1-0.6c-0.4-0.3-0.7-0.7-0.8-1.1c-0.2-0.5-0.2-0.9-0.2-1.4c-0.2,0.2-0.3,0.3-0.5,0.5 c-0.2,0.2-0.3,0.3-0.5,0.5c-0.6,0.6-1.3,1-2.1,1.4c-0.7,0.4-1.6,0.6-2.4,0.6c-0.9,0-1.6-0.3-2.2-0.7c-0.6-0.5-1.1-1.1-1.3-1.9 c-0.2-0.7-0.3-1.5-0.2-2.3C7.5,18.6,7.7,17.8,8,17s0.7-1.4,1.3-2s1.1-1.1,1.8-1.4c0.3-0.1,0.7-0.3,1-0.3c0.3-0.1,0.7-0.1,1-0.1 c0-0.4,0.1-0.8,0.3-1.2c0.2-0.4,0.4-0.7,0.6-1c0.5-0.6,1-1.1,1.7-1.6c0.7-0.4,1.4-0.8,2.1-1.1c0.5-0.2,1-0.3,1.6-0.4 c0.6-0.1,1.2-0.2,1.8-0.2c0.6,0,1.2,0,1.8,0.1c0.6,0.1,1.2,0.2,1.7,0.4c0.7-0.3,1.4-0.5,2.2-0.6S28.4,7.7,28.9,8.1z M18.5,10.2 c0.2,0.7,0.2,1.5,0,2.3c-0.2,0.8-0.5,1.5-1,2c-0.2,0.2-0.5,0.5-0.8,0.6c-0.3,0.2-0.7,0.3-1,0.4c0.1,0.6,0.1,1.2,0,1.7 c-0.1,0.6-0.3,1.1-0.7,1.6c-0.2,0.3-0.5,0.6-0.8,0.9c-0.3,0.3-0.6,0.5-1,0.6c-0.4,0.2-0.7,0.3-1.1,0.3c-0.4,0.1-0.8,0.1-1.2,0 c-0.1,0-0.2-0.1-0.3-0.1c-0.1,0-0.2,0-0.2-0.1c0,0-0.1,0,0-0.1s0.1-0.1,0.1-0.1c0.1,0,0.1-0.1,0.2-0.1c0.1,0,0.1-0.1,0.1-0.1 c0.1,0,0.2-0.1,0.2-0.1c0.1-0.1,0.1-0.1,0.2-0.2c0.3-0.2,0.6-0.4,0.8-0.7c0.3-0.3,0.5-0.6,0.6-0.9c0.1-0.2,0.2-0.5,0.4-0.9 s0.2-0.8,0.2-1.2s0-0.7-0.2-1.1c-0.1-0.3-0.4-0.5-0.8-0.5c-0.4,0-0.8,0.1-1.1,0.2s-0.7,0.4-1,0.6S9.8,16,9.6,16.3 c-0.2,0.3-0.4,0.7-0.5,1c-0.1,0.3-0.2,0.7-0.3,1.1c-0.1,0.4-0.1,0.8-0.2,1.2s0,0.8,0.1,1.2c0.1,0.4,0.2,0.7,0.4,1.1 c0.2,0.4,0.5,0.6,0.9,0.8s0.7,0.2,1.1,0.2c0.4,0,0.8-0.1,1.1-0.3c0.4-0.2,0.7-0.3,1-0.6c0.7-0.5,1.2-1.1,1.7-1.8 c0.5-0.7,1-1.4,1.4-2.1c0.5-0.7,1-1.5,1.5-2.2s1-1.5,1.5-2.2c0.5-0.7,1-1.4,1.5-2.1c0.5-0.7,1.1-1.3,1.7-1.9 c0.1-0.1,0.3-0.3,0.5-0.4c0.2-0.1,0.3-0.3,0.5-0.4c-0.4-0.1-0.8-0.2-1.2-0.3c-0.4-0.1-0.8-0.1-1.1-0.1c-0.8-0.1-1.6,0-2.4,0.2 c-0.8,0.2-1.6,0.5-2.2,1c-0.4,0.2-0.7,0.5-1,0.9c-0.3,0.3-0.5,0.7-0.7,1.1c-0.2,0.5-0.3,0.9-0.3,1.3c0,0.4,0.1,0.6,0.3,0.8 c0.2,0.1,0.5,0.1,0.8,0c0.3-0.1,0.8-0.5,1.2-1c0.3-0.3,0.5-0.6,0.7-1c0.2-0.3,0.4-0.7,0.6-1.1c0-0.1,0.1-0.2,0.1-0.3 C18.4,10.3,18.5,10.2,18.5,10.2z M20.6,16.3c-0.2,0.3-0.4,0.6-0.6,0.9c-0.2,0.3-0.4,0.6-0.6,0.9c0.2,0,0.5,0,0.8,0 c0.3,0,0.5,0.1,0.8,0.3c0.3,0.2,0.5,0.4,0.5,0.5c0.1,0.2,0.1,0.3,0,0.3c0,0-0.1,0-0.3,0c-0.1,0-0.2,0-0.3,0c-0.4,0-0.7,0.1-1,0.3 c-0.3,0.2-0.6,0.4-0.8,0.6c-0.2,0.3-0.4,0.6-0.6,0.9c-0.1,0.4-0.2,0.7-0.1,1.1c0,0.2,0.1,0.3,0.3,0.5c0.1,0.1,0.3,0.2,0.4,0.3 c0.2,0.1,0.3,0.1,0.5,0.1c0.2,0,0.3,0,0.5,0c0.4-0.1,0.7-0.2,1-0.4c0.3-0.2,0.6-0.5,0.8-0.7c0.2-0.3,0.4-0.6,0.6-0.9s0.3-0.7,0.3-1 c0.1-0.4,0.1-0.8,0.1-1.2s-0.1-0.8-0.2-1.2c-0.1-0.3-0.3-0.5-0.5-0.6c-0.2-0.2-0.5-0.3-0.7-0.4c-0.1,0-0.3,0-0.4,0 C20.9,16.4,20.7,16.4,20.6,16.3L20.6,16.3z M21.3,15.1l0.3,0.1c0.4,0,0.8-0.1,1.1-0.2s0.7-0.3,1-0.5c0.3-0.2,0.6-0.4,0.8-0.8 c0.3-0.3,0.5-0.7,0.7-1c0.2-0.4,0.3-0.7,0.3-1.1s-0.1-0.8-0.3-1.1c-0.2-0.3-0.4-0.5-0.6-0.7l-0.1,0.1c-0.6,0.6-1.1,1.3-1.5,2.1 s-0.9,1.5-1.3,2.2L21.3,15.1z"></path> <path d="M30.5,19.5c-0.2,0-0.3,0-0.5,0c-0.2,0-0.3,0-0.5-0.1c-0.3,0.8-0.3,1.5-0.2,2c0.1,0.5,0.4,0.9,0.7,1.1 c0.4,0.2,0.9,0.2,1.5,0.1c0.6-0.1,1.3-0.4,2.1-0.9c0.6-0.4,1.2-0.9,1.7-1.6c0.5-0.6,0.9-1.2,1.2-1.8c0.2-0.1,0.3-0.1,0.5-0.1 c0.1,0,0.2,0.2,0.3,0.4c-0.3,0.6-0.8,1.3-1.3,2c-0.5,0.7-1.2,1.3-1.8,1.9C33,23.4,32,24,31,24.3c-1,0.3-1.9,0.2-2.6-0.3 c-0.6-0.4-1-0.9-1.3-1.5c-0.3-0.6-0.4-1.2-0.4-1.9c0-0.6,0.1-1.2,0.3-1.9c0.2-0.6,0.5-1.2,0.8-1.8c0.4-0.6,0.8-1.1,1.2-1.6 s1-0.9,1.5-1.2c0.5-0.3,1.2-0.5,1.9-0.7c0.7-0.2,1.4-0.2,2,0c0.3,0.1,0.6,0.2,0.8,0.4c0.2,0.2,0.4,0.4,0.5,0.6 c0.1,0.2,0.1,0.5,0.1,0.8c0,0.3-0.1,0.6-0.2,0.8c-0.2,0.7-0.6,1.2-1.2,1.7c-0.6,0.5-1.1,0.8-1.8,1.1C31.9,19.3,31.2,19.4,30.5,19.5 z M32.4,15.2c-0.5,0.5-1,1-1.5,1.6c-0.4,0.6-0.8,1.2-1.1,1.9c0.2-0.1,0.5-0.1,0.7-0.2c0.4-0.2,0.9-0.4,1.3-0.6 c0.4-0.2,0.8-0.5,1.1-0.8c0.3-0.3,0.6-0.6,0.8-0.9s0.4-0.7,0.3-1.2c0-0.2-0.1-0.4-0.2-0.4c-0.1,0-0.3,0-0.5,0.1 c-0.2,0.1-0.4,0.2-0.5,0.3C32.6,15.1,32.5,15.2,32.4,15.2z"></path> <path d="M39.8,19.5c-0.2,0-0.3,0-0.5,0c-0.2,0-0.3,0-0.5-0.1c-0.3,0.8-0.3,1.5-0.2,2c0.1,0.5,0.4,0.9,0.7,1.1 c0.4,0.2,0.9,0.2,1.5,0.1c0.6-0.1,1.3-0.4,2.1-0.9c0.6-0.4,1.2-0.9,1.7-1.6c0.5-0.6,0.9-1.2,1.2-1.8c0.2-0.1,0.3-0.1,0.5-0.1 c0.1,0,0.2,0.2,0.3,0.4c-0.3,0.6-0.8,1.3-1.3,2c-0.5,0.7-1.2,1.3-1.8,1.9c-1.1,0.9-2.1,1.5-3.1,1.8c-1,0.3-1.9,0.2-2.6-0.3 c-0.6-0.4-1-0.9-1.3-1.5c-0.3-0.6-0.4-1.2-0.4-1.9c0-0.6,0.1-1.2,0.3-1.9c0.2-0.6,0.5-1.2,0.8-1.8c0.4-0.6,0.8-1.1,1.2-1.6 s1-0.9,1.5-1.2c0.5-0.3,1.2-0.5,1.9-0.7c0.7-0.2,1.4-0.2,2,0c0.3,0.1,0.6,0.2,0.8,0.4c0.2,0.2,0.4,0.4,0.5,0.6 c0.1,0.2,0.1,0.5,0.1,0.8c0,0.3-0.1,0.6-0.2,0.8c-0.2,0.7-0.6,1.2-1.2,1.7c-0.6,0.5-1.1,0.8-1.8,1.1C41.2,19.3,40.5,19.4,39.8,19.5 z M41.6,15.2c-0.5,0.5-1,1-1.5,1.6c-0.4,0.6-0.8,1.2-1.1,1.9c0.2-0.1,0.5-0.1,0.7-0.2c0.4-0.2,0.9-0.4,1.3-0.6 c0.4-0.2,0.8-0.5,1.1-0.8c0.3-0.3,0.6-0.6,0.8-0.9s0.4-0.7,0.3-1.2c0-0.2-0.1-0.4-0.2-0.4c-0.1,0-0.3,0-0.5,0.1 c-0.2,0.1-0.4,0.2-0.5,0.3C41.9,15.1,41.7,15.2,41.6,15.2z"></path> <path d="M43,22.1c0.9-1,1.7-2.1,2.4-3.3c0.7-1.2,1.3-2.4,1.8-3.8c-0.2-0.3-0.2-0.7-0.2-1c0-0.3,0.1-0.6,0.3-0.9 c0.1-0.2,0.3-0.4,0.5-0.5c0.2-0.1,0.4-0.1,0.7,0.1c0.2,0.2,0.4,0.4,0.3,0.7c0,0.3-0.1,0.6-0.2,0.9c0.1,0.1,0.2,0.1,0.4,0.1 c0.1,0,0.3,0,0.4,0c0.4,0,0.7-0.1,1.1-0.2c0.2-0.3,0.4-0.5,0.6-0.6c0.2-0.1,0.4-0.1,0.6,0.1c0.6,0.5,0.9,0.9,1,1.3 c0.1,0.4,0,0.8-0.4,1.1c-0.6,0.7-1.1,1.5-1.6,2.3c-0.5,0.8-0.9,1.6-1.2,2.3c-0.2,0.5-0.3,0.9-0.2,1.2c0,0.3,0.1,0.5,0.3,0.6 c0.2,0.1,0.4,0.1,0.8,0c0.3-0.1,0.7-0.3,1-0.7c0.4-0.4,0.9-0.9,1.3-1.5c0.5-0.6,0.9-1.3,1.2-1.9c0.2-0.1,0.4-0.1,0.5,0 c0.1,0.1,0.2,0.2,0.2,0.4c-0.4,0.7-0.8,1.4-1.2,2.1c-0.4,0.6-0.9,1.2-1.5,1.8c-0.5,0.5-0.9,0.8-1.4,1S49.5,24,49,24s-0.8,0-1.2-0.2 S47.2,23.3,47,23c-0.2-0.3-0.3-0.8-0.3-1.3s0.1-1.1,0.4-1.7c0.3-0.8,0.7-1.5,1.1-2.3c0.4-0.8,0.9-1.4,1.3-1.9c-0.1,0-0.2,0-0.2,0 c-0.1,0-0.3,0-0.5-0.1c-0.2-0.1-0.4-0.1-0.6-0.2c-0.2,0.4-0.4,0.9-0.6,1.5c-0.2,0.6-0.5,1.2-0.9,1.8c-0.3,0.5-0.6,1-0.8,1.5 c-0.3,0.4-0.6,0.8-0.9,1.1c-0.3,0.3-0.6,0.5-0.9,0.7C43.6,22.1,43.3,22.1,43,22.1z"></path> <path d="M61.3,11.9c-0.2,0.3-0.4,0.6-0.5,1.1c-0.2,0.5-0.3,1-0.4,1.6c-0.1,0.6-0.2,1.2-0.2,1.8c-0.1,0.6-0.2,1.2-0.2,1.8 s-0.2,1.2-0.4,1.8c0.3,0.1,0.6,0.1,0.9,0s0.5-0.2,0.8-0.3c0.2-0.2,0.4-0.3,0.6-0.5c0.2-0.2,0.3-0.4,0.5-0.7 c0.4-0.2,0.6-0.1,0.7,0.4c-0.2,0.4-0.5,0.9-0.8,1.3c-0.3,0.4-0.7,0.8-1.2,1c-0.3,0.2-0.7,0.3-1,0.3c-0.3,0.1-0.7,0.1-1,0.1 c-0.4,0.6-0.8,1.1-1.3,1.5c-0.5,0.4-1,0.7-1.7,0.9c-0.7,0.2-1.4,0.3-2,0.3c-0.7,0-1.3-0.2-1.8-0.5s-0.8-0.9-1-1.7 c-0.1-0.3-0.1-0.7,0-1c0.1-0.3,0.2-0.6,0.3-0.9c0.2-0.3,0.3-0.6,0.6-0.8s0.5-0.5,0.8-0.6c0.5-0.3,1.1-0.5,1.7-0.5 c0.3-0.4,0.6-0.8,0.9-1.2c0.3-0.4,0.6-0.9,1-1.3c0.3-0.4,0.6-0.8,0.9-1.3c0.3-0.4,0.6-0.8,0.8-1.1c0.1-0.2,0.2-0.4,0.3-0.5 c0.1-0.2,0.3-0.3,0.5-0.4c0.2-0.1,0.4-0.2,0.7-0.3c0.2-0.1,0.5-0.1,0.8-0.1S61,11.7,61.3,11.9z M55.9,21.7c0.2-0.2,0.3-0.5,0.5-0.8 c-0.4-0.1-0.7-0.3-1.1-0.5c-0.2-0.1-0.4-0.2-0.6-0.3C54.5,20.1,54.2,20,54,20s-0.5,0-0.7,0.1c-0.2,0.1-0.4,0.2-0.6,0.4 c-0.1,0.1-0.2,0.3-0.3,0.5c-0.1,0.2-0.1,0.4-0.1,0.6c0.1,0.4,0.2,0.7,0.5,1c0.3,0.2,0.6,0.3,0.9,0.3c0.4,0,0.7-0.1,1.1-0.3 C55.3,22.4,55.7,22.1,55.9,21.7z M57.6,15.4c-0.3,0.4-0.7,0.9-1,1.4c-0.4,0.5-0.7,0.9-1.1,1.4c0.3,0.1,0.6,0.2,0.9,0.3l0.8,0.4 c0.1-0.6,0.2-1.1,0.2-1.7C57.4,16.5,57.5,15.9,57.6,15.4z"></path> <path d="M71.7,18.3c0.2-0.1,0.4-0.1,0.5,0c0.1,0,0.2,0.2,0.2,0.4c-0.4,0.9-0.9,1.6-1.4,2.3c-0.5,0.7-1.1,1.3-1.7,1.7 c-0.6,0.5-1.2,0.8-1.9,1.1c-0.7,0.2-1.3,0.3-2.1,0.3c-0.7,0-1.2-0.2-1.7-0.6c-0.5-0.3-0.8-0.8-1-1.4l-0.7,1.4l-1.2,2.4 c0,0.1-0.1,0.3-0.3,0.5c-0.1,0.3-0.3,0.6-0.4,0.9s-0.3,0.7-0.4,1c-0.1,0.3-0.2,0.6-0.2,0.8c-0.2-0.1-0.4-0.2-0.6-0.3 c-0.2-0.1-0.4-0.3-0.5-0.5c-0.2-0.2-0.3-0.3-0.4-0.5s-0.1-0.4-0.1-0.6c0.1-0.4,0.2-0.8,0.4-1.1c0.2-0.4,0.4-0.7,0.5-1.1 c0.4-0.9,0.9-1.8,1.4-2.7c0.5-0.9,1-1.8,1.4-2.7c0.6-1,1.1-2.1,1.6-3.1c0.5-1,1-2.1,1.5-3.2c0,0,0.2-0.1,0.4-0.1s0.4,0,0.6,0.1 c0.2,0.1,0.4,0.2,0.5,0.4c0.1,0.2,0.1,0.5,0,0.9l-0.4,1c0.3-0.3,0.6-0.6,0.9-0.9c0.3-0.3,0.7-0.5,1.1-0.7c0.3-0.1,0.6-0.2,1-0.2 c0.4,0,0.7,0.1,1,0.3c0.3,0.2,0.4,0.5,0.5,0.8c0.1,0.3,0.1,0.6,0.2,1c0,0.7-0.1,1.4-0.4,2.1c-0.3,0.7-0.6,1.4-0.9,2.1 c-0.2,0.4-0.5,0.9-0.7,1.3c-0.3,0.4-0.6,0.8-0.9,1.2c0.4-0.1,0.9-0.3,1.3-0.6c0.4-0.3,0.8-0.6,1.1-1c0.4-0.4,0.7-0.8,1-1.3 C71.2,19.3,71.4,18.8,71.7,18.3z M63.3,20.9c0,0.3,0.1,0.5,0.2,0.7c0.1,0.2,0.2,0.4,0.4,0.5c0.2,0.1,0.4,0.1,0.6,0.1 s0.5-0.2,0.7-0.5c0.6-0.7,1.2-1.4,1.6-2.2s0.7-1.7,1-2.6c0-0.1,0.1-0.2,0.1-0.4c0-0.2,0.1-0.4,0.1-0.5c0-0.2,0-0.3-0.1-0.5 c-0.1-0.1-0.2-0.2-0.3-0.2c-0.2,0-0.4,0.1-0.6,0.2c-0.2,0.1-0.4,0.2-0.6,0.4c-0.2,0.2-0.4,0.3-0.6,0.5c-0.2,0.2-0.3,0.3-0.5,0.5 c-0.1,0.1-0.1,0.1-0.2,0.2s-0.1,0.1-0.1,0.2L64.2,19L63.3,20.9z"></path> <path d="M77.8,14.2c0.2-0.1,0.4-0.1,0.7,0c0.4,0.1,0.8,0.3,1,0.7c0.3,0.4,0.4,0.7,0.5,1.1c0.1,0.6,0.2,1.3,0,2s-0.3,1.3-0.6,1.9 c0.5,0.2,0.9,0.1,1.4-0.2c0.4-0.3,0.8-0.8,1.2-1.4c0.4-0.2,0.7-0.1,0.7,0.4c-0.5,0.9-1.1,1.6-1.7,2.1c-0.7,0.5-1.6,0.8-2.6,0.8 c-0.2,0.3-0.5,0.6-0.8,0.9c-0.3,0.3-0.6,0.6-0.9,0.8c-0.3,0.2-0.6,0.4-1,0.6c-0.4,0.2-0.7,0.2-1.1,0.3c-0.5,0-0.9,0-1.3-0.2 c-0.4-0.2-0.7-0.4-1-0.7c-0.3-0.3-0.5-0.7-0.7-1.1c-0.2-0.4-0.3-0.8-0.3-1.3c0-0.5,0-1,0.1-1.6s0.2-1,0.4-1.5 c0.2-0.5,0.4-1,0.7-1.4s0.6-0.8,1-1.2c0.4-0.3,0.8-0.6,1.2-0.9c0.4-0.2,0.9-0.4,1.4-0.4c0.2,0,0.5,0,0.8,0 C77.3,14,77.5,14,77.8,14.2L77.8,14.2z M76.8,19.1c0.2-0.2,0.5-0.4,0.8-0.5c0.3-0.1,0.5-0.1,0.8,0c0.1,0.1,0.2,0.1,0.3,0.2 c0.1-0.4,0.2-0.8,0.2-1.2c0-0.4,0-0.9-0.1-1.3c-0.1-0.2-0.2-0.5-0.3-0.6c-0.1-0.2-0.3-0.3-0.5-0.5c-0.3,0-0.5,0-0.7,0.1 s-0.5,0.1-0.7,0.3c-0.4,0.2-0.7,0.5-1,0.8c-0.3,0.4-0.6,0.8-0.8,1.3c-0.2,0.5-0.4,0.9-0.6,1.4s-0.2,1-0.3,1.4c0,0.4,0,0.8,0.1,1.2 s0.3,0.6,0.6,0.7c0.4,0.2,0.8,0.2,1.3,0c0.5-0.2,0.9-0.5,1.4-1c-0.2-0.1-0.4-0.2-0.6-0.3c-0.2-0.1-0.3-0.3-0.4-0.5 c-0.1-0.2-0.1-0.5,0-0.8C76.3,19.6,76.5,19.3,76.8,19.1z"></path> <path d="M88.7,9.9c0.1,0.2,0.1,0.4,0,0.5c-0.1,0.1-0.1,0.3-0.2,0.5l-0.3,0.5c0.3,0,0.6,0.1,0.8,0.1c0.3,0.1,0.5,0.2,0.8,0.5 c0.2,0.2,0.3,0.5,0.4,0.8c0,0.2,0,0.4,0,0.4c0,0.1-0.2,0.1-0.3,0.1c-0.2,0-0.4,0.1-0.7,0.1s-0.5,0.1-0.8,0.1 c-0.3,0-0.5,0.1-0.7,0.1c-0.2,0-0.4,0.1-0.5,0.1h0l-0.5,1.1l-1.9,3.8c-0.1,0.1-0.2,0.3-0.3,0.6c-0.2,0.3-0.3,0.7-0.5,1 c-0.4,0.8-0.5,1.4-0.5,1.7c0,0.4,0.1,0.6,0.4,0.6s0.6-0.1,1-0.3c0.4-0.3,0.9-0.7,1.4-1.2c0.3-0.4,0.6-0.8,0.9-1.2 c0.3-0.4,0.6-0.9,0.8-1.4c0.4-0.2,0.7-0.1,0.7,0.4c-0.2,0.4-0.5,0.9-0.7,1.3s-0.6,0.9-0.9,1.3c-0.3,0.4-0.6,0.8-1,1.2 c-0.4,0.4-0.7,0.7-1.1,1c-0.3,0.2-0.7,0.4-1.2,0.5s-0.9,0.1-1.4,0c-0.3-0.1-0.6-0.2-0.8-0.5c-0.2-0.2-0.4-0.5-0.4-0.9 c-0.1-0.3-0.1-0.7-0.1-1c0-0.4,0.1-0.7,0.2-1.1c0.1-0.4,0.2-0.7,0.3-1s0.3-0.6,0.4-1c0.3-0.8,0.7-1.6,1.1-2.3s0.8-1.5,1.3-2.2 c-0.5,0.1-0.9,0.1-1.2,0.1c-0.4,0-0.6,0.1-0.7,0.1c-0.1-0.1-0.1-0.3-0.1-0.5c0-0.2,0-0.4,0.1-0.6c0.1-0.2,0.2-0.4,0.3-0.5 c0.1-0.2,0.2-0.3,0.3-0.4c0.3-0.2,0.7-0.4,1.1-0.5s0.8-0.2,1.2-0.2c0.1,0,0.1,0,0.2,0s0.1,0,0.2,0l0.6-1.2c0.1-0.2,0.2-0.4,0.3-0.5 c0.1-0.2,0.2-0.3,0.4-0.5c0.1-0.1,0.3-0.1,0.5-0.1c0.2,0,0.4,0.1,0.5,0.2c0.2,0.1,0.3,0.2,0.4,0.3C88.6,9.7,88.7,9.8,88.7,9.9z"></path> <path d="M88,18.3c0.1-0.1,0.2-0.2,0.5-0.2s0.5,0.1,0.7,0.4c0.3,0.3,0.5,0.7,0.6,1.2c0.1,0.5,0.2,1,0.1,1.6c0,0.6-0.1,1.2-0.3,1.8 c-0.2,0.6-0.4,1.2-0.6,1.9c-0.5,1.2-1.1,2.1-1.8,2.8c-0.7,0.7-1.5,1.3-2.4,1.7c-0.9,0.4-1.9,0.7-3,0.8c-1.1,0.1-2.2,0.2-3.4,0.1 c-3.9-0.1-7.8-0.3-11.7-0.4c-3.9-0.1-7.8-0.2-11.5-0.2c-3.7,0-7.4,0-10.8,0.1s-6.7,0.2-9.6,0.5c-3,0.2-5.6,0.5-8,0.9 s-4.3,0.8-5.8,1.3c-0.4,0.1-0.7,0.2-0.9,0.3c-0.2,0.1-0.4,0.1-0.4,0c-0.1,0-0.1-0.2,0-0.3c0.1-0.2,0.2-0.5,0.3-0.8 c0.4-0.8,0.9-1.5,1.5-2.1c0.6-0.6,1.3-1.1,2-1.5c0.7-0.4,1.5-0.7,2.2-1c0.8-0.2,1.4-0.4,2.1-0.5c1.4-0.2,3.1-0.4,5-0.5 s4-0.1,6.2-0.1s4.6,0,7,0.1s4.9,0.2,7.4,0.3c2.5,0.1,4.9,0.3,7.4,0.4s4.8,0.3,7,0.4c2.2,0.1,4.3,0.2,6.1,0.3 c1.9,0.1,3.5,0.2,4.9,0.2c0.8,0,1.6,0,2.5,0c0.9,0,1.8-0.1,2.7-0.3c0.9-0.2,1.7-0.5,2.4-1c0.7-0.5,1.3-1.1,1.8-2 c0.3-0.6,0.5-1.2,0.7-1.8c0.2-0.6,0.2-1.2,0.2-1.7c0-0.5-0.1-1-0.2-1.4c-0.1-0.4-0.4-0.7-0.7-0.9c-0.1,0-0.1-0.1-0.1-0.2 C87.9,18.5,87.9,18.4,88,18.3z"></path> </g> </svg>