<?xml version="1.0" encoding="utf-8"?>
<!-- Generator: Adobe Illustrator 19.2.0, SVG Export Plug-In . SVG Version: 6.00 Build 0)  -->
<svg version="1.1" xmlns="http://www.w3.org/2000/svg" xmlns:xlink="http://www.w3.org/1999/xlink" x="0px" y="0px"
	 viewBox="0 0 300 300" style="enable-background:new 0 0 300 300;" xml:space="preserve">
<style type="text/css">
	.st0{fill:none;}
	.st1{fill:#FFFFFF;}
	.st2{font-family:'PainterPERSONALUSEONLY';}
	.st3{font-size:14px;}
	.st4{font-family:'PTSans-Regular';}
	.st5{font-family:'Arial-Black';}
	.st6{font-size:16px;}
	.st7{font-size:23px;}
</style>
<g id="Layer_3">
	<g>
		
			<image style="overflow:visible;" width="916" height="200" xlink:href="5A695425D2F81C24.png"  transform="matrix(0.24 0 0 0.24 33.5286 166.1104)">
		</image>
		<g>
			<rect x="34.5" y="171.3" class="st0" width="213.7" height="39.6"/>
			<text transform="matrix(1 0 0 1 54.0752 181.1501)"><tspan x="0" y="0" class="st1 st2 st3">Gesponsord door Jupiler </tspan><tspan x="147.4" y="0" class="st1 st4 st3">0</tspan><tspan x="155.1" y="0" class="st1 st2 st3">.</tspan><tspan x="159.1" y="0" class="st1 st4 st3">0</tspan><tspan x="166.7" y="0" class="st1 st2 st3">%</tspan></text>
		</g>
	</g>
</g>
<g id="Layer_2">
	<g>
		
			<image style="overflow:visible;" width="1008" height="356" xlink:href="5A695425D2F81C25.png"  transform="matrix(0.24 0 0 0.24 23.978 88.9312)">
		</image>
		<g>
			<rect x="25" y="94.2" class="st0" width="235.7" height="77.1"/>
			<text transform="matrix(1 0 0 1 38.378 105.6588)"><tspan x="0" y="0" class="st1 st5 st6">VIND DE CODES ONDER </tspan><tspan x="8.5" y="19.2" class="st1 st5 st6">DE KROONKURKEN &amp; </tspan><tspan x="34.7" y="38.4" class="st1 st5 st6">MAAK KANS OP </tspan><tspan x="7.1" y="57.6" class="st1 st5 st6">GEWELDIGE PRIJZEN!</tspan></text>
		</g>
	</g>
</g>
<g id="Layer_1">
	<g>
		
			<image style="overflow:visible;" width="730" height="173" xlink:href="5A695425D2F81C23.png"  transform="matrix(0.24 0 0 0.24 81.7709 59.8252)">
		</image>
		<g>
			<rect x="82.8" y="66.4" class="st0" width="169.2" height="31.7"/>
			<text transform="matrix(1 0 0 1 82.7708 82.6052)" class="st1 st2 st7">Zoek &amp; Win</text>
		</g>
	</g>
</g>
</svg>
